<?xml version="1.0" encoding="iso-8859-1"?>
<!-- Generator: Adobe Illustrator 19.0.0, SVG Export Plug-In . SVG Version: 6.00 Build 0)  -->
<svg version="1.1" id="Layer_1" xmlns="http://www.w3.org/2000/svg" xmlns:xlink="http://www.w3.org/1999/xlink" x="0px" y="0px"
	 viewBox="0 0 512 512" style="enable-background:new 0 0 512 512;" xml:space="preserve">
<g>
	<g>
		<path d="M436.967,72.777c-0.266-2.664-1.905-4.995-4.323-6.147L294.28,0.743c-2.728-1.299-5.971-0.871-8.268,1.099l-24.631,21.112
			l-51.47-13.479c-3.209-0.845-6.584,0.479-8.375,3.265L77.43,205.904c-4.222,6.57-2.844,14.861,3.276,19.714
			c2.789,2.21,6.048,3.299,9.285,3.299c3.679,0,7.33-1.408,10.223-4.177l142.303-111.326c-0.007,0.35-0.026,0.696-0.026,1.047
			c0,27.18,21.334,49.465,48.135,51.007l40.453,108.063l-5.876,28.024c-0.002,0.012-0.005,0.023-0.007,0.036l-9.07,43.252
			c-0.003,0.015-0.006,0.031-0.01,0.047l-12.716,60.637l-12.356-11.878c-6.492-6.24-15.364-9.45-24.348-8.799
			c-8.983,0.648-17.305,5.096-22.835,12.206c-10.438,13.42-8.512,32.61,4.386,43.688l80.817,69.41
			c1.409,1.21,3.183,1.847,4.986,1.847c0.824,0,1.654-0.134,2.458-0.406c2.561-0.869,4.473-3.027,5.029-5.675l35.493-169.258
			c0.002-0.011,0.005-0.022,0.007-0.034l10.84-51.695l3.009-14.351c0.466-2.231-0.091-4.438-1.353-6.134l-48.785-130.321
			c2.536-6.057,3.942-12.701,3.942-19.667c0-0.731-0.024-1.457-0.055-2.18l30.001,8.171c2.276,0.62,4.713,0.155,6.601-1.261
			l52.71-39.533C436.087,78.05,437.234,75.441,436.967,72.777z M257.791,114.461c0-19.74,16.059-35.8,35.799-35.8
			c19.74,0,35.8,16.06,35.8,35.8s-16.06,35.799-35.8,35.799C273.85,150.26,257.791,134.2,257.791,114.461z M329.215,490.115
			l-71-60.979c-6.698-5.753-7.698-15.718-2.278-22.687c2.913-3.746,7.125-5.997,11.859-6.339c4.728-0.342,9.222,1.281,12.643,4.569
			l22.312,21.445c2.006,1.928,4.899,2.614,7.557,1.795c2.657-0.819,4.661-3.018,5.232-5.741l4.13-19.695l22.824,19.687
			c0.267,0.232,0.55,0.432,0.838,0.62L329.215,490.115z M346.903,405.77l-23.644-20.395l5.162-24.616l23.568,20.33
			c0.024,0.021,0.051,0.039,0.077,0.06L346.903,405.77z M355.653,364.043l-23.643-20.395l5.491-26.182l23.643,20.394
			L355.653,364.043z M375.337,270.171l-10.607,50.58l-23.643-20.394l5.423-25.858c0.297-1.42,0.186-2.894-0.322-4.252
			l-39.797-106.311c9.253-2.395,17.487-7.333,23.933-14.007L375.337,270.171z M375.047,104.705l-34.046-9.272
			c-7.564-18.778-25.958-32.072-47.411-32.072c-18.662,0-35.011,10.061-43.93,25.038L91.733,211.949L211.408,25.682l49.971,13.087
			c2.427,0.638,5.012,0.042,6.917-1.592l23.897-20.482l122.453,58.31L375.047,104.705z"/>
	</g>
</g>
<g>
	<g>
		<path d="M293.589,91.376c-12.729,0-23.084,10.356-23.084,23.085s10.354,23.084,23.084,23.084
			c12.729,0,23.085-10.356,23.085-23.084C316.674,101.732,306.318,91.376,293.589,91.376z M293.59,122.244
			c-4.292,0-7.783-3.492-7.783-7.783c0-4.292,3.492-7.784,7.783-7.784c4.292,0,7.784,3.492,7.784,7.784
			C301.374,118.752,297.882,122.244,293.59,122.244z"/>
	</g>
</g>
<g>
</g>
<g>
</g>
<g>
</g>
<g>
</g>
<g>
</g>
<g>
</g>
<g>
</g>
<g>
</g>
<g>
</g>
<g>
</g>
<g>
</g>
<g>
</g>
<g>
</g>
<g>
</g>
<g>
</g>
</svg>
