<?xml version="1.0" encoding="iso-8859-1"?>
<!-- Generator: Adobe Illustrator 18.0.0, SVG Export Plug-In . SVG Version: 6.00 Build 0)  -->
<!DOCTYPE svg PUBLIC "-//W3C//DTD SVG 1.1//EN" "http://www.w3.org/Graphics/SVG/1.1/DTD/svg11.dtd">
<svg version="1.1" id="Capa_1" xmlns="http://www.w3.org/2000/svg" xmlns:xlink="http://www.w3.org/1999/xlink" x="0px" y="0px"
	 viewBox="0 0 297 297" style="enable-background:new 0 0 297 297;" xml:space="preserve">
<g>
	<g>
		<polygon points="168.017,117.524 158.571,126.971 168.017,136.418 		"/>
		<path d="M205.493,279.725c0-3.084-2.51-5.595-5.594-5.595h-11.538V5.595c0-3.085-2.509-5.595-5.595-5.595
			c-3.085,0-5.594,2.509-5.594,5.595V274.13h-11.539c-3.085,0-5.594,2.51-5.594,5.595c0,3.084,2.509,5.595,5.594,5.595h11.539v6.086
			c0,3.085,2.509,5.595,5.594,5.595c3.085,0,5.595-2.509,5.595-5.595v-6.086h11.538
			C202.983,285.319,205.493,282.809,205.493,279.725z"/>
		<path d="M294.214,14.806c-0.46-0.461-1.329-0.761-2.535-0.761c-1.167,0-2.648,0.281-4.379,0.969l-23.865,9.49
			c-2.568,1.02-5.206,2.807-7.432,5.034l-58.487,58.487v46.956l81.964-81.964c2.225-2.224,4.013-4.864,5.035-7.433l9.489-23.864
			C295.406,18.199,295.119,15.711,294.214,14.806z"/>
		<path d="M265.653,254.195l-68.137-68.137v46.955l44.659,44.659c3.627,3.628,8.009,6.203,12.025,7.065
			c2.915,0.626,5.282,0.289,6.493-0.925l11.098-11.098c1.214-1.213,1.551-3.58,0.925-6.494
			C271.854,262.204,269.28,257.82,265.653,254.195z"/>
	</g>
	<g>
		<polygon points="128.983,203.515 138.43,194.068 128.983,184.62 		"/>
		<path d="M136.961,279.725c0-3.084-2.509-5.595-5.594-5.595h-11.539V5.595c0-3.085-2.509-5.595-5.595-5.595
			c-3.085,0-5.595,2.509-5.595,5.595V274.13H97.101c-3.084,0-5.594,2.51-5.594,5.595c0,3.084,2.51,5.595,5.594,5.595h11.538v6.086
			c0,3.085,2.509,5.595,5.595,5.595c3.085,0,5.595-2.509,5.595-5.595v-6.086h11.539
			C134.452,285.319,136.961,282.809,136.961,279.725z"/>
		<path d="M99.484,186.058l-68.137,68.137c-3.627,3.626-6.201,8.009-7.064,12.025c-0.626,2.914-0.289,5.281,0.925,6.494
			l11.098,11.098c1.212,1.214,3.578,1.55,6.493,0.925c4.016-0.862,8.399-3.437,12.026-7.064l44.659-44.659V186.058z"/>
		<polygon points="128.983,117.524 128.983,164.48 168.017,203.514 168.017,156.559 		"/>
		<path d="M99.484,88.026L40.998,29.539c-2.226-2.227-4.865-4.014-7.43-5.034L9.7,15.014c-1.73-0.688-3.212-0.969-4.379-0.969
			c-1.206,0-2.075,0.3-2.535,0.761c-0.905,0.905-1.192,3.393,0.209,6.914l9.49,23.865c1.021,2.568,2.809,5.208,5.034,7.432
			l81.964,81.964V88.026z"/>
	</g>
</g>
<g>
</g>
<g>
</g>
<g>
</g>
<g>
</g>
<g>
</g>
<g>
</g>
<g>
</g>
<g>
</g>
<g>
</g>
<g>
</g>
<g>
</g>
<g>
</g>
<g>
</g>
<g>
</g>
<g>
</g>
</svg>
