<?xml version="1.0" encoding="iso-8859-1"?>
<!-- Generator: Adobe Illustrator 19.0.0, SVG Export Plug-In . SVG Version: 6.00 Build 0)  -->
<svg version="1.1" id="Capa_1" xmlns="http://www.w3.org/2000/svg" xmlns:xlink="http://www.w3.org/1999/xlink" x="0px" y="0px"
	 viewBox="0 0 298.332 298.332" style="enable-background:new 0 0 298.332 298.332;" xml:space="preserve">
<g>
	<path d="M282.797,15.523C272.787,5.513,259.478,0,245.321,0c-14.157,0-27.467,5.513-37.477,15.523
		c-0.066,0.066-0.131,0.134-0.195,0.202c-0.345,0.37-20.896,22.408-44.93,47.648c-6.175,0.746-11.894,3.512-16.391,8.009
		l-0.041,0.041c-4.873,4.873-7.559,11.113-8.073,17.498c-8.641,8.931-17.023,17.498-24.415,24.89
		c-7.589,7.589-16.418,16.224-25.607,25.109c-6.607,0.528-12.749,3.349-17.487,8.086l-0.076,0.077
		c-4.458,4.457-7.216,10.156-7.969,16.315c-24.944,23.745-46.579,43.92-46.946,44.262c-0.068,0.064-0.136,0.13-0.202,0.195
		c-20.664,20.665-20.664,54.289,0.001,74.954c10.01,10.01,23.319,15.522,37.477,15.522s27.466-5.513,37.477-15.522
		c0.065-0.066,0.131-0.134,0.195-0.202c0.346-0.371,21.032-22.554,45.168-47.896c5.538-1.008,10.637-3.659,14.701-7.724l0.078-0.079
		c0.042-0.043,0.081-0.087,0.123-0.13c0.038-0.037,0.077-0.072,0.115-0.109l0.115-0.114c4.456-4.457,7.087-10.057,7.897-15.865
		c9.076-9.392,17.908-18.425,25.651-26.168c7.637-7.638,16.529-16.334,25.783-25.279c5.999-0.825,11.541-3.561,15.895-7.915
		l0.078-0.078c0.047-0.048,0.091-0.098,0.138-0.144c0.034-0.034,0.069-0.065,0.104-0.099l0.111-0.11
		c4.071-4.07,6.724-9.177,7.729-14.723c25.488-24.278,47.874-45.153,48.247-45.501c0.069-0.064,0.137-0.129,0.202-0.195
		C292.807,80.467,298.32,67.157,298.32,53S292.807,25.533,282.797,15.523z M78.441,166.844c0-3.19,1.243-6.19,3.5-8.446l0.077-0.077
		c2.256-2.257,5.256-3.499,8.446-3.499c3.19,0,6.19,1.242,8.446,3.499l3.809,3.809L85.748,179.1l-3.809-3.81
		C79.684,173.034,78.441,170.034,78.441,166.844z M139.683,215.205l-0.115,0.114c-2.256,2.256-5.255,3.499-8.446,3.499
		c-3.19,0-6.19-1.243-8.446-3.5l-14.181-14.18l16.971-16.971l14.181,14.181C144.303,203.006,144.303,210.584,139.683,215.205z
		 M157.637,82.7l0.041-0.041c2.256-2.257,5.255-3.499,8.445-3.499c3.191,0,6.191,1.243,8.447,3.5l3.809,3.809l-16.97,16.971
		l-3.809-3.809C152.944,94.973,152.944,87.395,157.637,82.7z M218.805,131.135c0,3.19-1.242,6.189-3.465,8.412l-0.112,0.111
		c-2.256,2.256-5.256,3.499-8.445,3.499c-3.19,0-6.19-1.243-8.446-3.5l-14.181-14.18l16.971-16.97l14.18,14.181
		C217.563,124.945,218.805,127.944,218.805,131.135z"/>
</g>
<g>
</g>
<g>
</g>
<g>
</g>
<g>
</g>
<g>
</g>
<g>
</g>
<g>
</g>
<g>
</g>
<g>
</g>
<g>
</g>
<g>
</g>
<g>
</g>
<g>
</g>
<g>
</g>
<g>
</g>
</svg>
